<?xml version="1.0" encoding="UTF-8" standalone="no"?>
<!-- Created with Inkscape (http://www.inkscape.org/) -->

<svg
   xmlns:dc="http://purl.org/dc/elements/1.1/"
   xmlns:cc="http://creativecommons.org/ns#"
   xmlns:rdf="http://www.w3.org/1999/02/22-rdf-syntax-ns#"
   xmlns:svg="http://www.w3.org/2000/svg"
   xmlns="http://www.w3.org/2000/svg"
   xmlns:sodipodi="http://sodipodi.sourceforge.net/DTD/sodipodi-0.dtd"
   xmlns:inkscape="http://www.inkscape.org/namespaces/inkscape"
   id="svg2"
   version="1.1"
   inkscape:version="0.92.2 2405546, 2018-03-11"
   width="185.17194"
   height="106.89132"
   viewBox="0 0 185.17194 106.89132"
   sodipodi:docname="logo.svg">
  <metadata
     id="metadata8">
    <rdf:RDF>
      <cc:Work
         rdf:about="">
        <dc:format>image/svg+xml</dc:format>
        <dc:type
           rdf:resource="http://purl.org/dc/dcmitype/StillImage" />
        <dc:title />
      </cc:Work>
    </rdf:RDF>
  </metadata>
  <defs
     id="defs6">
    <clipPath
       clipPathUnits="userSpaceOnUse"
       id="clipPath820">
      <path
         style="fill:none;stroke:#000000;stroke-width:1px;stroke-linecap:butt;stroke-linejoin:miter;stroke-opacity:1"
         d="m -420.0874,149.79386 124.83448,120.96134 c 25.64388,-2.51998 48.32738,-6.53633 73.88772,-19.9616 18.18836,-9.90959 39.31473,-23.9033 53.33024,-43.20048 12.71813,-14.63776 20.13322,-32.30584 27.40996,-50.05297 5.66979,-9.65578 6.09107,-20.62369 8.93803,-30.98517 l 0.59587,-11.3215 -52.43644,-68.524895 -75.07945,-1.191737 -17.87606,19.663666 75.67531,86.400956 -10.12976,5.95868 -85.20922,-100.701797 -94.74312,-15.492585 -39.32733,36.943856 z"
         id="path822"
         inkscape:connector-curvature="0"
         sodipodi:nodetypes="cccccccccccccccc" />
    </clipPath>
  </defs>
  <sodipodi:namedview
     pagecolor="#ffffff"
     bordercolor="#666666"
     borderopacity="1"
     objecttolerance="10"
     gridtolerance="10"
     guidetolerance="10"
     inkscape:pageopacity="0"
     inkscape:pageshadow="2"
     inkscape:window-width="1920"
     inkscape:window-height="1048"
     id="namedview4"
     showgrid="false"
     fit-margin-top="0"
     fit-margin-left="0"
     fit-margin-right="0"
     fit-margin-bottom="0"
     inkscape:zoom="1.1866823"
     inkscape:cx="-437.54382"
     inkscape:cy="-64.941224"
     inkscape:window-x="0"
     inkscape:window-y="0"
     inkscape:window-maximized="1"
     inkscape:current-layer="svg2" />
  <g
     id="g827"
     inkscape:export-xdpi="96"
     inkscape:export-ydpi="96">
    <circle
       r="171.47211"
       cy="99.080719"
       cx="-301.00629"
       id="path812"
       style="opacity:1;fill:#008080;fill-opacity:1;stroke:#000000;stroke-width:0;stroke-linejoin:round;stroke-miterlimit:4;stroke-dasharray:none;stroke-opacity:1" />
    <rect
       clip-path="url(#clipPath820)"
       ry="28"
       y="9.7647285"
       x="-461.20233"
       height="284.82523"
       width="454.05191"
       id="rect816"
       style="opacity:0.353;fill:#000000;fill-opacity:1;stroke:#000000;stroke-width:0;stroke-linejoin:round;stroke-miterlimit:4;stroke-dasharray:none;stroke-opacity:1" />
    <path
       inkscape:connector-curvature="0"
       id="path3338"
       d="m -379.60483,175.74949 c -39.06628,-10.50552 -64.3892,-49.02045 -57.72288,-87.793676 2.86377,-16.656535 8.78899,-28.83867 19.96256,-41.042633 39.47135,-43.1112883 109.24771,-29.414942 130.93378,25.700892 1.73152,4.400694 4.01074,16.40616 5.06489,26.678756 3.70629,36.116801 17.63463,51.046341 49.41126,52.963021 13.18485,0.79527 16.2895,0.36865 23.18537,-3.18608 11.97302,-6.17193 17.48228,-12.32956 22.70607,-25.37836 5.66318,-14.14639 6.03033,-26.523428 1.09221,-36.820687 -7.89697,-16.46725 -21.20183,-25.012631 -40.7354,-26.163335 -12.56803,-0.740359 -19.52773,1.009693 -28.44982,7.153884 -9.5768,6.595047 -23.67313,0.349934 -29.40783,-13.028591 -4.84682,-11.307147 -3.11218,-21.42996 4.64303,-27.095406 10.55689,-7.712154 19.38692,-9.329469 37.94331,-6.949709 27.38216,3.511622 41.5879,10.064894 56.59377,26.107392 28.01032,29.945308 27.63645,76.659762 -0.85467,106.784912 -34.82468,36.82195 -92.84891,31.52716 -122.21304,-11.15216 -8.02992,-11.67106 -10.53166,-19.9163 -12.75958,-42.05278 -3.0262,-30.068282 -7.77183,-38.556991 -27.00389,-48.302817 -9.29709,-4.711283 -12.60793,-5.456257 -21.33055,-4.799616 -14.19942,1.068932 -32.20715,9.496177 -39.22446,18.356256 -19.62913,24.783804 -10.56423,65.093167 17.24695,76.692857 14.34332,5.98243 33.04934,2.02028 38.49417,-8.15347 1.68128,-3.14147 3.84715,-3.80892 12.36026,-3.80892 9.26539,0 10.96722,0.64544 16.6282,6.30642 7.01881,7.01882 8.08099,13.73282 3.78018,23.89415 -3.8189,9.02268 -8.66094,12.27509 -22.70371,15.2501 -15.80139,3.3476 -24.73676,3.30952 -37.64018,-0.16045 z"
       style="fill:#ffffff;stroke-width:1.48386383" />
  </g>
</svg>
